<svg id="school_2_" data-name="school (2)" xmlns="http://www.w3.org/2000/svg" width="40.001" height="40.002" viewBox="0 0 40.001 40.002">
  <g id="Group_30067" data-name="Group 30067" transform="translate(0 26.361)">
    <g id="Group_30066" data-name="Group 30066">
      <path id="Path_30323" data-name="Path 30323" d="M1.172,337.4A1.172,1.172,0,0,0,0,338.572v11.3a1.172,1.172,0,0,0,1.172,1.172H5.188V337.4Z" transform="translate(0 -337.4)" fill="#0058a5"/>
    </g>
  </g>
  <g id="Group_30069" data-name="Group 30069" transform="translate(34.814 26.361)">
    <g id="Group_30068" data-name="Group 30068">
      <path id="Path_30324" data-name="Path 30324" d="M449.616,337.4H445.6v13.641h4.016a1.172,1.172,0,0,0,1.172-1.172v-11.3A1.172,1.172,0,0,0,449.616,337.4Z" transform="translate(-445.6 -337.4)" fill="#0058a5"/>
    </g>
  </g>
  <g id="Group_30071" data-name="Group 30071" transform="translate(5.021)">
    <g id="Group_30070" data-name="Group 30070">
      <path id="Path_30325" data-name="Path 30325" d="M93.537,13.913,80.416,7.949V3.6h3.849a1.172,1.172,0,0,0,1.172-1.172V1.172A1.172,1.172,0,0,0,84.265,0H79.244a1.172,1.172,0,0,0-1.172,1.172V7.949L64.952,13.913a1.172,1.172,0,1,0,.97,2.134l.854-.388V38.83A1.172,1.172,0,0,0,67.947,40h6.36V31.3a1.172,1.172,0,0,1,1.172-1.172H83.01A1.172,1.172,0,0,1,84.182,31.3V40h6.36a1.172,1.172,0,0,0,1.172-1.172V15.659l.854.388a1.172,1.172,0,0,0,.97-2.134ZM79.244,25.028a4.938,4.938,0,1,1,4.938-4.938A4.943,4.943,0,0,1,79.244,25.028Z" transform="translate(-64.264)" fill="#0058a5"/>
    </g>
  </g>
</svg>
